HIERARCHY
ROOT Hips
{
	OFFSET -3.958830 18.904000 13.208200
	CHANNELS 6 Xposition Yposition Zposition Zrotation Yrotation Xrotation 
	JOINT LHipJoint
	{
		OFFSET 0.000000 0.000000 0.000000
		CHANNELS 3 Zrotation Yrotation Xrotation
		JOINT LeftUpLeg
		{
			OFFSET 1.800000 -1.400000 0.085000
			CHANNELS 3 Zrotation Yrotation Xrotation
			JOINT LeftLeg
			{
				OFFSET 2.215000 -6.000000 0.000000
				CHANNELS 3 Zrotation Yrotation Xrotation
				JOINT LeftFoot
				{
					OFFSET 2.500000 -6.900000 0.000000
					CHANNELS 3 Zrotation Yrotation Xrotation
					JOINT LeftToeBase
					{
						OFFSET 0.200000 -0.500000 1.950000
						CHANNELS 3 Zrotation Yrotation Xrotation
						End Site
						{
							OFFSET 0.000000 0.000000 0.000000
						}
					}
				}
			}
		}
	}
	JOINT RHipJoint
	{
		OFFSET 0.000000 0.000000 0.000000
		CHANNELS 3 Zrotation Yrotation Xrotation
		JOINT RightUpLeg
		{
			OFFSET -1.800000 -1.400000 0.085000
			CHANNELS 3 Zrotation Yrotation Xrotation
			JOINT RightLeg
			{
				OFFSET -2.215000 -6.000000 0.000000
				CHANNELS 3 Zrotation Yrotation Xrotation
				JOINT RightFoot
				{
					OFFSET -2.500000 -6.900000 0.000000
					CHANNELS 3 Zrotation Yrotation Xrotation
					JOINT RightToeBase
					{
						OFFSET -0.200000 -0.500000 1.950000
						CHANNELS 3 Zrotation Yrotation Xrotation
						End Site
						{
							OFFSET 0.000000 0.000000 0.000000
						}
					}
				}
			}
		}
	}
	JOINT LowerBack
	{
		OFFSET 0.000000 0.000000 0.000000
		CHANNELS 3 Zrotation Yrotation Xrotation
		JOINT Spine
		{
			OFFSET -0.087000 1.940000 -0.288900
			CHANNELS 3 Zrotation Yrotation Xrotation
			JOINT Spine1
			{
				OFFSET 0.000000 1.950000 0.060000
				CHANNELS 3 Zrotation Yrotation Xrotation
				JOINT Neck
				{
					OFFSET 0.000000 0.000000 0.000000
					CHANNELS 3 Zrotation Yrotation Xrotation
					JOINT Neck1
					{
						OFFSET 0.000000 1.600000 0.340000
						CHANNELS 3 Zrotation Yrotation Xrotation
						JOINT Head
						{
							OFFSET 0.000000 1.667000 -0.240000
							CHANNELS 3 Zrotation Yrotation Xrotation
							End Site
							{
								OFFSET 0.000000 0.000000 0.000000
							}
						}
					}
				}
				JOINT LeftShoulder
				{
					OFFSET 0.000000 0.000000 0.000000
					CHANNELS 3 Zrotation Yrotation Xrotation
					JOINT LeftArm
					{
						OFFSET 2.700000 1.550000 -0.730000
						CHANNELS 3 Zrotation Yrotation Xrotation
						JOINT LeftForeArm
						{
							OFFSET 5.450000 0.000000 0.000000
							CHANNELS 3 Zrotation Yrotation Xrotation
							JOINT LeftHand
							{
								OFFSET 3.450000 0.000000 0.000000
								CHANNELS 3 Zrotation Yrotation Xrotation
								JOINT LeftHandIndex1
								{
									OFFSET 0.750000 0.000000 0.000000
									CHANNELS 3 Zrotation Yrotation Xrotation
									End Site
									{
										OFFSET 0.000000 0.000000 0.000000
									}
								}
							}
						}
					}
				}
				JOINT RightShoulder
				{
					OFFSET 0.000000 0.000000 0.000000
					CHANNELS 3 Zrotation Yrotation Xrotation
					JOINT RightArm
					{
						OFFSET -2.700000 1.550000 -0.730000
						CHANNELS 3 Zrotation Yrotation Xrotation
						JOINT RightForeArm
						{
							OFFSET -5.450000 0.000000 0.000000
							CHANNELS 3 Zrotation Yrotation Xrotation
							JOINT RightHand
							{
								OFFSET -3.450000 0.000000 0.000000
								CHANNELS 3 Zrotation Yrotation Xrotation
								JOINT RightHandIndex1
								{
									OFFSET -0.750000 0.000000 0.000000
									CHANNELS 3 Zrotation Yrotation Xrotation
									End Site
									{
										OFFSET 0.000000 0.000000 0.000000
									}
								}
							}
						}
					}
				}
			}
		}
	}
}
MOTION
Frames: 12
Frame Time: 0.016667
19.643290 16.115690 6.772790 -2.881722 44.271696 33.362169 -15.600024 10.258502 5.369337 1.667082 -11.740283 -49.739676 -7.101635 1.318322 -5.437299 -0.274168 1.707371 3.933665 0.000860 0.061960 -0.003900 18.321967 -8.586338 2.865410 -20.408592 3.050301 -24.775055 5.033314 -1.363933 -5.248094 0.045777 -2.820457 3.224709 0.071400 0.174620 0.111480 -3.003790 -1.768918 -8.331403 -4.514928 6.894734 10.943795 9.656341 4.755183 -0.328756 -1.630822 -0.615703 -10.150863 1.783652 -0.597536 6.298001 -1.065490 0.842450 -12.968900 15.947445 16.196822 6.572503 -41.442588 25.785303 -16.169410 -50.093176 -28.061763 8.586204 -3.151150 3.892462 -0.104780 0.159980 -0.076530 0.018780 -11.697789 -11.669279 4.328268 57.137262 -15.691033 -18.852864 28.517581 25.750715 2.223659 2.314586 -1.649686 -0.026180 0.028920 0.013090 0.042300 
19.692980 16.115070 6.801050 -2.258400 44.784360 34.281352 -15.536430 10.129323 5.337209 2.671418 -11.602511 -49.284657 -8.467512 1.175760 -6.309982 -0.262120 1.897291 3.890088 0.026340 0.102670 -0.022260 18.388972 -8.560849 2.912832 -21.720636 3.087284 -24.265616 5.295539 -1.360703 -5.699838 0.036911 -3.030913 3.151238 0.124050 0.227700 0.118490 -3.127208 -1.511180 -8.291640 -3.996727 7.084672 9.390113 8.765569 5.152673 -0.647188 -1.601764 -1.083188 -10.537021 1.766902 -1.931073 4.317740 -1.486940 -0.495510 -12.124770 15.174066 14.604855 6.099915 -40.570647 23.440419 -15.998573 -42.245288 -24.481982 5.313777 -3.294984 3.789442 -0.166180 0.209310 -0.119310 0.051150 -10.944884 -9.779207 5.327103 57.479523 -18.416128 -20.185645 24.607623 25.148390 1.115857 2.300897 -1.634772 -0.028150 0.050290 0.006260 0.069210 
19.714770 16.122150 6.845980 -1.566600 45.453800 34.217865 -15.493850 10.126486 5.250063 2.829258 -11.304438 -48.136091 -9.523746 1.145560 -6.507174 -0.299275 2.019409 3.835884 0.089610 0.184090 0.026430 18.416402 -8.641519 2.885973 -21.387311 3.039463 -22.920148 4.915937 -1.336972 -6.225331 -0.001001 -3.137497 3.103874 0.196010 0.212950 0.130720 -3.195925 -1.332064 -8.188152 -4.281491 7.750521 8.179282 8.446233 5.671252 0.217278 -1.333548 -0.827318 -10.974443 2.525300 -2.627370 3.466687 -2.431020 -0.628950 -13.020480 14.258396 12.072710 5.951181 -37.690227 21.079956 -14.634397 -39.955614 -21.087902 3.454828 -3.379320 3.696618 -0.172550 0.224640 -0.107530 0.053440 -10.562239 -7.596108 6.030680 57.267215 -18.978718 -20.088282 20.810489 22.928213 0.048889 2.291350 -1.597351 -0.024950 0.064120 -0.009620 0.055440 
19.740440 16.145630 6.861830 -1.154105 45.734123 33.052132 -15.411437 10.154049 5.105336 2.224186 -10.879499 -46.235389 -9.727900 1.142000 -6.593300 -0.336868 2.025469 3.826056 0.161430 0.264610 0.063200 18.456606 -8.856224 2.893489 -21.421945 2.999588 -21.044594 3.824267 -1.323335 -6.720460 -0.060989 -3.256287 3.060236 0.253980 0.185480 0.124220 -3.333918 -0.938047 -8.099579 -3.563213 8.333186 7.765647 8.306531 6.431128 1.241113 -1.802516 -0.982227 -11.168052 2.499549 -3.436773 4.193991 -1.714730 -1.859030 -14.286070 12.272210 8.920720 6.055543 -33.581237 20.071683 -13.080472 -39.131987 -19.332209 2.565491 -3.384435 3.631075 -0.144740 0.193120 -0.080710 0.068840 -7.811837 -4.318002 5.988833 52.935288 -16.165129 -15.649195 15.133233 11.593481 -1.668714 2.471387 -1.420627 -0.018430 0.091010 -0.032400 0.053740 
19.775250 16.144230 6.889570 -0.833312 45.940198 32.697154 -15.384676 10.203684 5.013712 1.813082 -10.593997 -45.410230 -9.978076 1.278291 -5.988905 -0.404024 2.051004 3.796677 0.210830 0.328840 0.128600 18.466675 -8.928563 2.896102 -21.811879 3.094801 -20.258043 3.916423 -1.396266 -6.517503 -0.093280 -3.339983 3.003704 0.313870 0.161310 0.137600 -3.382570 -0.854318 -8.014565 -3.287670 8.091093 7.070271 8.218400 6.130094 1.260053 -1.438802 -0.878969 -11.412998 2.354076 -1.490537 3.366016 -3.056460 0.205430 -15.420220 12.191824 8.256330 6.404169 -33.674319 22.939406 -14.170598 -34.057497 -17.569703 1.082688 -3.483204 3.514706 -0.130210 0.210140 -0.058750 0.051880 -8.452406 -3.652882 5.847915 50.545587 -13.889390 -13.338760 10.622625 7.281038 -1.811166 2.523293 -1.379988 -0.028060 0.096460 -0.041720 0.016880 
19.808520 16.155760 6.927930 -0.162672 46.100864 32.669387 -15.351216 10.239650 4.916947 1.268096 -10.425369 -44.155699 -10.239521 1.236378 -6.211997 -0.494836 2.095067 3.773181 0.283160 0.416520 0.200350 18.485335 -8.988237 2.901542 -22.008269 3.065007 -19.356211 4.366891 -1.494696 -6.413707 -0.135039 -3.441997 2.944850 0.401220 0.142590 0.134750 -3.442387 -0.758909 -7.931895 -3.179263 8.028381 6.260510 7.729966 6.142153 1.182100 -1.207418 -0.834546 -11.475005 2.435946 -0.751172 2.340182 -3.945270 0.958760 -17.028610 11.010563 7.575635 6.268613 -32.299513 23.658476 -13.796865 -30.209501 -16.526857 0.326708 -3.578156 3.404927 -0.102420 0.217660 -0.038420 0.046840 -7.724041 -3.163890 5.852444 49.743682 -13.754395 -12.471259 7.512346 5.251080 -1.789699 2.527641 -1.361222 -0.052020 0.136370 -0.056600 -0.018150 
19.834740 16.166230 6.947130 0.286171 46.097241 31.885032 -15.338504 10.342392 4.801414 0.761890 -10.093469 -42.532007 -10.321137 1.239132 -6.383885 -0.500893 2.109351 3.772748 0.276810 0.401770 0.214970 18.470616 -9.058284 2.913973 -22.352775 3.015733 -18.168141 4.584259 -1.624691 -6.341791 -0.160936 -3.538627 2.914886 0.390560 0.122810 0.126640 -3.451897 -0.774813 -7.875653 -3.087299 8.706139 6.060389 7.936767 6.861002 1.153480 -1.084422 -1.260735 -11.529805 1.922978 -1.294557 2.292232 -4.704400 0.840720 -17.811880 11.416985 7.373005 5.974642 -31.925931 20.721232 -12.749870 -27.950149 -11.931601 -1.022216 -3.626704 3.253902 -0.075750 0.200700 -0.025170 0.035320 -8.183995 -2.517046 6.398363 49.834083 -14.913152 -12.627742 5.873669 3.705732 -1.686209 2.567113 -1.313478 -0.062140 0.143000 -0.054770 -0.032340 
19.848480 16.180710 6.966220 1.233393 46.210211 31.778862 -15.329622 10.428367 4.764862 0.348004 -10.032289 -41.540763 -10.741323 1.319054 -6.077185 -0.476719 2.127035 3.777367 0.235680 0.349410 0.206360 18.454033 -9.170123 2.874804 -22.828122 2.930560 -17.683550 4.054138 -1.764018 -5.658356 -0.152253 -3.549266 2.919149 0.349910 0.126010 0.123650 -3.477994 -0.759297 -7.858641 -2.981672 8.353694 6.223477 6.775595 6.742234 0.391578 -0.693833 -1.364010 -11.931555 1.513383 -0.273385 2.085453 -5.065560 1.869180 -17.781560 10.746160 6.262406 6.133681 -30.350177 20.767942 -12.073792 -25.299052 -7.399862 -2.302395 -3.735799 3.092581 -0.068220 0.201680 -0.027720 0.022100 -8.205286 -1.534219 6.685034 50.345276 -14.765626 -12.618251 4.783275 2.348505 -1.549113 2.614708 -1.284724 -0.072660 0.133490 -0.044810 -0.040070 
19.884580 16.206360 6.981260 1.928044 45.302227 31.581783 -15.308807 10.500993 4.677902 -0.393363 -9.965209 -39.945888 -10.831438 1.256575 -6.427594 -0.470625 2.123708 3.781873 0.247850 0.359750 0.202110 18.455232 -9.214933 2.893742 -23.838294 2.906798 -17.199787 3.315356 -1.794775 -5.631548 -0.171750 -3.622082 2.886219 0.353550 0.121230 0.121700 -3.526931 -0.767498 -7.843556 -2.694388 8.040530 5.982499 5.979132 6.750398 0.087558 -0.689368 -2.036735 -12.224840 0.224117 0.838847 1.735416 -4.622860 2.250820 -18.170090 10.284027 5.146902 6.112639 -30.065030 18.317179 -10.749827 -21.700483 1.456161 -4.159882 -3.905183 2.873538 -0.062740 0.187900 -0.029150 0.025350 -7.553380 -0.131417 7.113998 50.132922 -15.041046 -12.587350 6.560211 0.335700 -1.744980 2.640384 -1.272326 -0.066950 0.128400 -0.044850 -0.037930 
19.923610 16.215800 7.009910 2.341913 44.530363 31.014303 -15.282950 10.560472 4.547980 -0.941266 -9.670003 -38.302381 -10.994848 1.301193 -6.377312 -0.485699 2.168142 3.774057 0.255000 0.369670 0.199720 18.466126 -9.225137 2.960313 -24.326029 2.955567 -16.340995 3.429108 -1.821330 -6.122772 -0.195229 -3.766076 2.835099 0.372450 0.138410 0.124180 -3.572221 -0.755689 -7.793800 -2.928072 8.045779 5.256479 5.973092 6.782694 0.021700 -0.739103 -2.084996 -12.417758 -0.070398 1.867401 1.139176 -4.492930 2.721590 -18.008930 10.636680 5.168101 6.464579 -30.338009 19.800759 -11.250997 -21.649025 -1.002574 -3.686881 -3.886570 2.926304 -0.070160 0.204370 -0.042900 0.027870 -7.720224 -0.152699 7.101148 50.027676 -15.220379 -12.558779 5.058149 0.595180 -1.616457 2.631819 -1.289081 -0.076150 0.135080 -0.038910 -0.040240 
19.956300 16.223670 7.020620 2.135950 44.544804 29.979701 -15.257464 10.632643 4.454641 -1.067627 -9.157263 -37.181073 -10.994925 1.413866 -6.086488 -0.499516 2.187439 3.767484 0.273620 0.394970 0.223280 18.466369 -9.388464 2.918069 -24.007364 3.050276 -15.248560 2.575997 -1.842287 -5.838763 -0.217299 -3.785144 2.837774 0.390580 0.127560 0.122040 -3.628397 -0.589046 -7.704181 -2.262253 8.177165 4.948142 5.807634 7.084692 -0.465903 -0.640999 -1.938594 -12.133471 0.301791 1.584136 0.785435 -4.644790 2.621790 -18.938890 9.292832 6.270301 6.219268 -28.556474 23.833818 -11.880225 -20.485962 -3.559254 -3.210655 -3.874653 2.932493 -0.056180 0.197980 -0.025080 0.027570 -6.682310 -1.256261 6.841312 48.259802 -16.370367 -12.472154 3.497612 2.125586 -1.506930 2.612755 -1.282363 -0.079270 0.152510 -0.047700 -0.046940 
19.994870 16.221680 7.041010 2.574619 45.257228 29.678576 -15.255682 10.682620 4.414751 -1.303313 -8.964520 -36.167748 -11.481976 1.387751 -6.544425 -0.438983 2.250409 3.756055 0.245830 0.366790 0.183280 18.454249 -9.433048 2.896185 -23.923238 3.106258 -13.960691 2.169508 -1.880141 -5.899976 -0.220941 -3.903216 2.810006 0.364980 0.150510 0.140540 -3.627554 -0.610049 -7.681385 -2.111119 8.091999 4.411001 5.974942 6.999637 -1.284619 -0.492918 -1.865872 -12.282145 0.486240 1.322926 0.397609 -4.485190 2.491460 -17.414330 9.850510 6.960282 6.051382 -28.328640 24.200393 -12.130293 -20.815671 -1.133248 -3.830150 -3.917279 2.928775 -0.101230 0.220500 -0.051020 0.033830 -7.439482 -2.034367 7.305580 48.813222 -19.617151 -14.271821 1.355471 8.766599 -1.490650 2.519499 -1.365528 -0.059310 0.113170 -0.041450 -0.023380 
